<?xml version="1.0" encoding="utf-8"?>

<!DOCTYPE svg PUBLIC "-//W3C//DTD SVG 1.1//EN" "http://www.w3.org/Graphics/SVG/1.1/DTD/svg11.dtd">
<svg version="1.1" id="Layer_1" xmlns="http://www.w3.org/2000/svg" xmlns:xlink="http://www.w3.org/1999/xlink" x="0px" y="0px"
	 viewBox="0 0 2001.081 1647.658" enable-background="new 0 0 2001.081 1647.658" xml:space="preserve">
<g>
	<g>
		<g>
			<path d="M1847.092,520.198C1380.308,53.414,620.793,53.414,154.01,520.197C86.108,588.099-16.737,485.399,51.238,417.425
				C574.4-105.737,1423.438-109,1949.864,417.426C2017.766,485.328,1915.066,588.172,1847.092,520.198z"/>
		</g>
		<g>
			<path d="M1622.612,744.679c-343.005-343.005-901.116-343.005-1244.12,0c-67.902,67.902-170.746-34.798-102.772-102.772
				c400.897-400.897,1048.712-400.953,1449.664,0C1793.285,709.808,1690.586,812.653,1622.612,744.679z"/>
		</g>
		<g>
			<path d="M1398.129,969.162c-219.226-219.226-575.931-219.226-795.156-0.001c-67.902,67.902-170.746-34.798-102.772-102.772
				c276.731-276.731,723.929-276.769,1000.7,0.001C1568.802,934.291,1466.103,1037.136,1398.129,969.162z"/>
		</g>
		<g>
			<path d="M1173.647,1193.643c-95.446-95.446-250.747-95.447-346.192-0.001c-67.902,67.902-170.746-34.798-102.772-102.772
				c152.115-152.115,399.622-152.116,551.738,0C1344.311,1158.76,1241.639,1261.635,1173.647,1193.643z"/>
		</g>
	</g>
	<circle cx="1000.541" cy="1448.949" r="174.88"/>
</g>
</svg>
